<svg xmlns="http://www.w3.org/2000/svg" viewBox="0 0 67.773 82.921" width="68" height="83"><defs><style>.a{fill:#262626;stroke:#262626;stroke-width:0.5px;}</style></defs><g transform="translate(0.25 0.25)"><path class="a" d="M90.286,280.538a1.22,1.22,0,0,0-1.589.672,3.321,3.321,0,0,1-6.152,0,1.22,1.22,0,0,0-2.263.913,5.762,5.762,0,0,0,10.677,0A1.22,1.22,0,0,0,90.286,280.538Z" transform="translate(-68.008 -234.822)"/><path class="a" d="M72.777,239.767a1.22,1.22,0,0,0-1.22,1.22v.542a1.22,1.22,0,0,0,2.44,0v-.542A1.22,1.22,0,0,0,72.777,239.767Z" transform="translate(-60.777 -200.76)"/><path class="a" d="M141.773,239.767a1.22,1.22,0,0,0-1.22,1.22v.542a1.22,1.22,0,1,0,2.44,0v-.542A1.22,1.22,0,0,0,141.773,239.767Z" transform="translate(-118.548 -200.76)"/><path class="a" d="M241.919,223.04a1.22,1.22,0,0,0-1.589.672,5.064,5.064,0,0,1-9.381,0,1.22,1.22,0,0,0-2.263.913,7.5,7.5,0,0,0,13.906,0A1.22,1.22,0,0,0,241.919,223.04Z" transform="translate(-192.268 -186.678)"/><path class="a" d="M217.868,166.656a1.22,1.22,0,0,0-1.22,1.22v.749a1.22,1.22,0,1,0,2.44,0v-.749A1.22,1.22,0,0,0,217.868,166.656Z" transform="translate(-182.263 -139.543)"/><path class="a" d="M313.34,166.656a1.22,1.22,0,0,0-1.22,1.22v.749a1.22,1.22,0,1,0,2.44,0v-.749A1.22,1.22,0,0,0,313.34,166.656Z" transform="translate(-262.203 -139.543)"/><path class="a" d="M49.575,82.412H21.732a1.78,1.78,0,0,1-1.767-1.98l1.614-13.951a13.828,13.828,0,0,1,1.83-5.456h-.444a5.421,5.421,0,0,1-8.876,3.229,5.438,5.438,0,0,1-1.829-3.229h-.436a7.921,7.921,0,0,0-7.872,7.013L2.891,77.207h3.5V70.417a1.22,1.22,0,1,1,2.44,0v6.791h7.793a1.22,1.22,0,0,1,0,2.44H1.975A1.623,1.623,0,0,1,.361,77.838l1.167-10.08a10.36,10.36,0,0,1,10.3-9.174h.361V57.122a12.4,12.4,0,0,1-6.874-9.382H3.838A3.843,3.843,0,0,1,0,43.9V42.662a3.843,3.843,0,0,1,3.838-3.84H5.18V27.655a4.275,4.275,0,0,1,4.271-4.269h2.121A3.3,3.3,0,0,1,14.865,20.2h3.864a1.22,1.22,0,1,1,0,2.44H14.865a.855.855,0,0,0-.854.854v1.109a1.222,1.222,0,0,1-1.22,1.22H9.451a1.832,1.832,0,0,0-1.83,1.829v5.81h2a1.093,1.093,0,0,0,1-.646l.836-1.873a2.069,2.069,0,0,1,1.394-1.17,2.1,2.1,0,0,1,.51-.063,2.057,2.057,0,0,1,1.27.437L18.6,33.236a1.094,1.094,0,0,0,.669.229h.2c0-.008,0-.016,0-.023s0-.018,0-.027V31.7a4.819,4.819,0,0,1,.747-2.581,4.872,4.872,0,0,1,1.941-1.754V14.4a11.989,11.989,0,0,1,.326-3.513,14.272,14.272,0,0,1,1.312-3.443,13.372,13.372,0,0,1,2.158-2.982,10.5,10.5,0,0,1,2.865-2.13c0-.027.008-.056.012-.086A14.354,14.354,0,0,1,36.556,0H46.7a8.355,8.355,0,0,1,7.353,4.443H56.2a8.391,8.391,0,0,1,8.382,8.382V27.366a4.872,4.872,0,0,1,1.941,1.754,4.819,4.819,0,0,1,.747,2.581v1.714a4.849,4.849,0,0,1-4.843,4.843H59.981a16.756,16.756,0,0,1-9.568,13.153V54.2h.968a13.986,13.986,0,0,1,2.728.267l-1.282,2.264a11.626,11.626,0,0,0-1.447-.09h-.968v.805a7.042,7.042,0,1,1-14.084,0v-.805h-.968A11.429,11.429,0,0,0,24,66.761l-1.529,13.21h5.841V70.106a1.22,1.22,0,0,1,2.44,0v9.865H48.718l.857,2.44ZM14.626,58V60.13a2.987,2.987,0,0,0,5.974,0V58a12.474,12.474,0,0,1-5.974,0ZM38.769,52.32v5.127a4.6,4.6,0,1,0,9.2,0V52.319a16.848,16.848,0,0,1-9.2,0ZM23.4,58.584a10.448,10.448,0,0,1,1.71.142,13.918,13.918,0,0,1,4.567-3.31A13.824,13.824,0,0,1,35.361,54.2h.968v-2.79A16.691,16.691,0,0,1,26.76,38.258H24.311a4.832,4.832,0,0,1-2.418-.648,4.888,4.888,0,0,1-1.734-1.7h-.892a3.545,3.545,0,0,1-2.168-.744l-3.6-2.8-.649,1.454a3.537,3.537,0,0,1-3.224,2.091h-2v4.137a1.222,1.222,0,0,1-1.22,1.22H3.838a1.4,1.4,0,0,0-1.4,1.4V43.9a1.4,1.4,0,0,0,1.4,1.4H6.417a1.22,1.22,0,0,1,1.219,1.157,10.023,10.023,0,0,0,6.211,8.735l.011,0h0l.025.01a10.029,10.029,0,0,0,7.456,0h0l0,0A9.949,9.949,0,0,0,24.5,53.168a10.054,10.054,0,0,0,2.523-3.881,1.224,1.224,0,0,1,1.15-.811h0a1.221,1.221,0,0,1,1.149,1.63,12.444,12.444,0,0,1-6.284,7.011v1.467Zm.91-29.286a2.4,2.4,0,0,0-2.4,2.4v1.714a2.4,2.4,0,0,0,2.4,2.4h3.568A1.22,1.22,0,0,1,29.1,36.975a14.337,14.337,0,0,0,8.876,12.492l.011,0,.05.019a14.352,14.352,0,0,0,10.659.006l.044-.019a14.3,14.3,0,0,0,8.905-12.5,1.22,1.22,0,0,1,1.219-1.157H62.43a2.4,2.4,0,0,0,2.4-2.4V31.7a2.4,2.4,0,0,0-2.4-2.4H58.884a1.222,1.222,0,0,1-1.22-1.22V21.067a12.516,12.516,0,0,0-3.419-8.611A13.768,13.768,0,0,1,40.881,22.822h-11.8v5.257a1.222,1.222,0,0,1-1.22,1.22ZM53.906,9.459a1.876,1.876,0,0,1,1.261.486A15.023,15.023,0,0,1,60.1,21.067v5.791h2.04V12.825A5.948,5.948,0,0,0,56.2,6.883H53.3A1.22,1.22,0,0,1,52.2,6.2l-.221-.454A5.9,5.9,0,0,0,46.7,2.44H36.556A11.918,11.918,0,0,0,30.142,4.3a1.217,1.217,0,0,1-.4.165c-3.884,1.763-5.14,7.452-5.14,9.93v6l3.26-.016H40.881a11.326,11.326,0,0,0,11.18-9.368,1.874,1.874,0,0,1,1.845-1.554ZM26.637,22.822l-2.04.015v4.021h2.04Z"/><path class="a" d="M0,28.184H26.939A1.781,1.781,0,0,0,28.709,26.2L27.093,12.237a7.257,7.257,0,0,0-.182-1.381,12.663,12.663,0,0,0-.546-1.8,14.9,14.9,0,0,0-2.4-4.125,13.549,13.549,0,0,0-4.517-3.571A14.515,14.515,0,0,0,16.258.246c-.443-.1-.9-.182-1.37-.246H9.7L9.5.024,9.24,0H0V7.866c.095.107.193.212.294.312a6.994,6.994,0,0,0,4.984,2.065,7.058,7.058,0,0,0,7.05-7.05V2.388H13.3a11.441,11.441,0,0,1,11.369,10.13L26.2,25.741H20.349V15.866a1.221,1.221,0,0,0-2.443,0v9.876H0v2.442ZM9.885,3.193A4.613,4.613,0,0,1,5.278,7.8,4.606,4.606,0,0,1,.672,3.193H9.885Z" transform="translate(38.089 54.237)"/></g></svg>