<svg xmlns="http://www.w3.org/2000/svg" viewBox="0 0 75.678 92.901" width="76" height="93"><defs><style>.a{fill:#262626;}</style></defs><g transform="translate(9.527 9.167)"><path class="a" d="M148.155,58.673a28.311,28.311,0,0,0-40.21,39.859,21.171,21.171,0,0,1,6.092,14.767v3.821a12.371,12.371,0,0,0,8.24,11.645v.76a4.736,4.736,0,0,0,4.731,4.731h2.541a4.736,4.736,0,0,0,4.731-4.731v-.76a12.371,12.371,0,0,0,8.24-11.645V113.3a21.1,21.1,0,0,1,6.071-14.746,28.31,28.31,0,0,0-.435-39.881Zm-17.213,70.852h0a1.4,1.4,0,0,1-1.393,1.393h-2.541a1.4,1.4,0,0,1-1.393-1.393v-.08c.256.016.513.027.774.027h3.78c.26,0,.518-.011.774-.027v.08Zm-.774-3.391h-3.78a9.025,9.025,0,0,1-8.228-5.341H138.4A9.025,9.025,0,0,1,130.167,126.134Zm9.014-9.014c0,.112,0,.224-.009.335h-21.79c0-.111-.009-.223-.009-.335v-2.152h21.807v2.152Zm-10.9-39.689a7.9,7.9,0,0,0,2.929-.562l1.05,1.566a14.941,14.941,0,0,1-7.959,0l1.05-1.566A7.892,7.892,0,0,0,128.278,77.431Zm-1-3.447,1-1.485,1,1.485a4.607,4.607,0,0,1-1.991,0Zm5.891,7.659v29.987h-3.227V82.236A18.208,18.208,0,0,0,133.173,81.644Zm-6.564.593v29.394h-3.227V81.644A18.225,18.225,0,0,0,126.609,82.236ZM146.2,96.228a24.485,24.485,0,0,0-6.956,15.4h-2.729V79.294a1.667,1.667,0,0,0-.283-.929l-6.564-9.791a1.669,1.669,0,0,0-2.772,0l-6.564,9.791a1.67,1.67,0,0,0-.283.929v32.337h-2.729a24.567,24.567,0,0,0-6.974-15.421,25,25,0,0,1,17.576-42.347c.121,0,.242,0,.362,0A24.972,24.972,0,0,1,146.2,96.228Z" transform="translate(-99.966 -50.522)"/></g><g transform="translate(41.956 15.537)"><path class="a" d="M280.816,85.694A1.669,1.669,0,0,0,279.9,88.9a19.5,19.5,0,0,1,14.083,18.667,1.669,1.669,0,0,0,3.338,0A22.852,22.852,0,0,0,280.816,85.694Z" transform="translate(-278.688 -85.629)"/></g><g transform="translate(35.864 14.73)"><path class="a" d="M248.34,81.214c-.523-.028-1.052-.039-1.578-.032a1.669,1.669,0,0,0,.023,3.338h.024c.45-.006.9,0,1.35.027.031,0,.062,0,.092,0a1.669,1.669,0,0,0,.09-3.335Z" transform="translate(-245.116 -81.18)"/></g><g transform="translate(69.426 36.17)"><path class="a" d="M434.664,199.341H431.75a1.669,1.669,0,0,0,0,3.338h2.914a1.669,1.669,0,0,0,0-3.338Z" transform="translate(-430.081 -199.341)"/></g><g transform="translate(0 36.17)"><path class="a" d="M52.041,199.341H49.129a1.669,1.669,0,0,0,0,3.338H52.04a1.669,1.669,0,1,0,0-3.338Z" transform="translate(-47.46 -199.341)"/></g><g transform="translate(64.97 18.085)"><path class="a" d="M411.163,100.5a1.669,1.669,0,0,0-2.28-.611l-2.524,1.457a1.669,1.669,0,1,0,1.669,2.89l2.524-1.457A1.669,1.669,0,0,0,411.163,100.5Z" transform="translate(-405.525 -99.67)"/></g><g transform="translate(4.846 52.799)"><path class="a" d="M79.8,291.821a1.669,1.669,0,0,0-2.28-.611L75,292.666a1.669,1.669,0,1,0,1.669,2.891l2.522-1.456A1.669,1.669,0,0,0,79.8,291.821Z" transform="translate(-74.166 -290.986)"/></g><g transform="translate(52.798 4.846)"><path class="a" d="M342.4,26.93a1.669,1.669,0,0,0-2.28.611l-1.457,2.524a1.669,1.669,0,1,0,2.89,1.669l1.457-2.524A1.669,1.669,0,0,0,342.4,26.93Z" transform="translate(-338.44 -26.706)"/></g><g transform="translate(36.17)"><path class="a" d="M248.47,0A1.669,1.669,0,0,0,246.8,1.669V4.583a1.669,1.669,0,1,0,3.338,0V1.669A1.669,1.669,0,0,0,248.47,0Z" transform="translate(-246.801)"/></g><g transform="translate(18.085 4.846)"><path class="a" d="M151.7,30.065l-1.457-2.524a1.669,1.669,0,1,0-2.89,1.669l1.457,2.524a1.669,1.669,0,1,0,2.89-1.669Z" transform="translate(-147.129 -26.707)"/></g><g transform="translate(4.846 18.085)"><path class="a" d="M79.194,101.351,76.67,99.894A1.669,1.669,0,0,0,75,102.784l2.524,1.457a1.669,1.669,0,0,0,1.669-2.89Z" transform="translate(-74.167 -99.67)"/></g><g transform="translate(64.972 52.799)"><path class="a" d="M410.562,292.665l-2.522-1.456a1.669,1.669,0,0,0-1.669,2.89l2.522,1.456a1.669,1.669,0,0,0,1.669-2.89Z" transform="translate(-405.537 -290.986)"/></g></svg>