<svg xmlns="http://www.w3.org/2000/svg" viewBox="0 0 96.207 83.421" width="96" height="83">
	<defs>
		<style>
		.a {
			fill: #262626;
		}

		</style>
	</defs>
	<g transform="translate(0.661 0.5)">
		<path class="a" d="M93.15,38.8,73.8,19.456a6.484,6.484,0,0,0-9.171,0L60.085,24a6.438,6.438,0,0,0-1.511,2.4L37.3,22.592h0A17.751,17.751,0,0,0,16.463,36.478l-.981,4.867a9.944,9.944,0,0,0,19.5,3.93l.6-2.976,9.54.834L70.029,68.045l4.515,4.515a2.345,2.345,0,0,1-3.316,3.316L59.134,63.782a2.157,2.157,0,0,0-3.051,3.051L68.177,78.927a2.345,2.345,0,0,1-3.316,3.316L52.767,70.149A2.157,2.157,0,0,0,49.716,73.2L61.811,85.294a2.345,2.345,0,0,1-3.316,3.316L46.4,76.515a2.157,2.157,0,1,0-3.051,3.051L55.444,91.661a2.345,2.345,0,1,1-3.316,3.316L9.334,52.184,3.683,46.533A2.157,2.157,0,0,0,.633,49.584l5.651,5.651,6.15,6.15-3.39,3.39a5.877,5.877,0,0,0,0,8.312l1.106,1.106a5.834,5.834,0,0,0,3.568,1.692,5.832,5.832,0,0,0,1.692,3.568l1.106,1.107a5.848,5.848,0,0,0,3.568,1.688,5.831,5.831,0,0,0,1.693,3.572l1.106,1.106a5.834,5.834,0,0,0,3.568,1.692,5.834,5.834,0,0,0,1.692,3.568l1.106,1.106a5.884,5.884,0,0,0,8.312,0l3.39-3.39,8.124,8.124A6.651,6.651,0,0,0,60.431,93.6a6.625,6.625,0,0,0,6.365-6.37,6.619,6.619,0,0,0,6.367-6.367A6.648,6.648,0,0,0,77.6,69.509l-2.99-2.99L85.544,55.581l7.606-7.606a6.493,6.493,0,0,0,0-9.171ZM12.094,70.036a1.564,1.564,0,0,1,0-2.21l3.179-3.179,3.316,3.316-3.179,3.179a1.565,1.565,0,0,1-2.21,0ZM18.461,76.4a1.564,1.564,0,0,1,0-2.21l3.179-3.179,3.316,3.316-3.179,3.179a1.565,1.565,0,0,1-2.21,0L18.461,76.4Zm6.367,6.367a1.562,1.562,0,0,1,0-2.21l3.179-3.179L31.323,80.7l-3.179,3.179a1.565,1.565,0,0,1-2.21,0L24.828,82.77Zm9.683,7.473a1.565,1.565,0,0,1-2.21,0L31.2,89.137a1.564,1.564,0,0,1,0-2.21l3.179-3.179,3.316,3.316-3.179,3.179ZM71.554,63.469,47.612,39.526a2.154,2.154,0,0,0-1.337-.623l-12.243-1.07c-.064-.006-.127-.008-.189-.008a2.158,2.158,0,0,0-2.113,1.731l-.981,4.867A5.629,5.629,0,1,1,19.711,42.2l.981-4.867a13.428,13.428,0,0,1,15.8-10.5l.046.009L57.5,30.592l2.581,2.581L80.968,54.056ZM90.1,44.924l-6.081,6.081L63.136,30.123a2.171,2.171,0,0,1,0-3.07l4.547-4.547a2.17,2.17,0,0,1,3.069,0L90.1,41.854a2.171,2.171,0,0,1,0,3.07Z" transform="translate(-0.001 -17.557)" />
		<circle class="a" cx="2.157" cy="2.157" r="2.157" transform="translate(82.719 24.531)" />
	</g>
</svg>
