<svg xmlns="http://www.w3.org/2000/svg" viewBox="0 0 82.937 82.937" width="83" height="83"><defs><style>.a{fill:#262626;stroke:#262626;stroke-width:0.4px;}</style></defs><g transform="translate(0.2 0.2)"><g transform="translate(0)"><path class="a" d="M53.3,240H32v13.312H53.3Zm-2.662,10.65H34.662v-7.987H50.637Z" transform="translate(-26.675 -200.063)"/><rect class="a" width="2.662" height="2.662" transform="translate(23.962 55.912)"/><rect class="a" width="7.987" height="2.662" transform="translate(13.312 55.912)"/><path class="a" d="M73.219,54.692V18.637A9.333,9.333,0,0,0,65.153,9.4a9.842,9.842,0,0,0-7.388-8.315A36.421,36.421,0,0,0,48.929,0H47.757A36.972,36.972,0,0,0,42.6.365a20.264,20.264,0,0,0-17.31,19.962V34.612H5.325A5.33,5.33,0,0,0,0,39.937V77.212a5.33,5.33,0,0,0,5.325,5.325H82.537V70.058A17.189,17.189,0,0,0,73.219,54.692ZM27.956,20.327A17.587,17.587,0,0,1,42.979,3a34.049,34.049,0,0,1,4.778-.339h1.171A33.859,33.859,0,0,1,57.12,3.67a7.186,7.186,0,0,1,5.449,6.98v1.331H63.9a6.664,6.664,0,0,1,6.656,6.656V53.593c-.513-.164-1.036-.31-1.571-.43l-10.41-2.312v-3.29a15.95,15.95,0,0,0,6.656-12.949V17.306H62.569v.666l-1.156.867A12.379,12.379,0,0,1,54.03,21.3H44.253a14.862,14.862,0,0,0-8.31,2.515V22.631H33.281V34.612a15.95,15.95,0,0,0,6.656,12.949v3.29L31.95,52.624V34.612H27.956V20.327ZM38.45,53.909l1.9-.422.724,2.416a72.946,72.946,0,0,0,4.442,11c.807,1.7,1.641,3.467,2.517,5.51l.56,1.309L34.877,63.435Zm-6.5,9.75V55.353l3.4-.755Zm9.984-27.715c3.3,0,5.991-2.388,5.991-5.325h2.662c0,2.937,2.688,5.325,5.991,5.325s5.991-2.388,5.991-5.325a4.684,4.684,0,0,0-.089-.787l.089-.029v4.81a13.312,13.312,0,0,1-26.625,0V29.8l.089.029a4.684,4.684,0,0,0-.089.787C35.944,33.555,38.631,35.944,41.934,35.944Zm14.644-10.65a6.133,6.133,0,0,0-5.157,2.662H47.092a6.134,6.134,0,0,0-5.157-2.662,6.236,6.236,0,0,0-4.75,2.117l-1.066-.355a12.2,12.2,0,0,1,8.135-3.092H54.03a15.055,15.055,0,0,0,8.539-2.69V27l-1.241.414A6.232,6.232,0,0,0,56.578,25.294Zm3.328,5.325c0,1.468-1.492,2.662-3.328,2.662s-3.328-1.194-3.328-2.662,1.492-2.662,3.328-2.662S59.906,29.15,59.906,30.619Zm-14.644,0c0,1.468-1.492,2.662-3.328,2.662s-3.328-1.194-3.328-2.662,1.492-2.662,3.328-2.662S45.262,29.15,45.262,30.619Zm2.659,35.144a69.93,69.93,0,0,1-4.3-10.625L42.6,51.723V49.116a15.795,15.795,0,0,0,13.312,0v2.607l-1.025,3.415a69.738,69.738,0,0,1-4.3,10.625c-.435.92-.879,1.857-1.334,2.848C48.8,67.619,48.356,66.683,47.921,65.762Zm2.559,6.65c.875-2.042,1.709-3.8,2.517-5.51a72.888,72.888,0,0,0,4.442-11l.724-2.416,1.9.422,3.573,9.525L49.919,73.719ZM2.662,39.937a2.665,2.665,0,0,1,2.662-2.662H29.287V71.887H5.325a5.285,5.285,0,0,0-2.662.715ZM26.009,79.875H5.325a2.662,2.662,0,1,1,0-5.325H26.009a5.315,5.315,0,0,0,0,5.325Zm53.866,0H69.225V74.55H66.562v5.325H30.619a2.662,2.662,0,1,1,0-5.325H31.95V64.565l17.306,12.98L66.827,64.367,63.165,54.6l5.244,1.166A14.554,14.554,0,0,1,79.875,70.058Z" transform="translate(0 0)"/></g></g></svg>